# Blender 4.2.3 LTS
# www.blender.org
mtllib 직선도로.mtl
o Cube
v -1.000000 -0.100000 1.000000
v -1.000000 0.100000 1.000000
v -1.000000 -0.100000 -1.000000
v -1.000000 0.100000 -1.000000
v 1.000000 -0.100000 1.000000
v 1.000000 0.100000 1.000000
v 1.000000 -0.100000 -1.000000
v 1.000000 0.100000 -1.000000
v 0.833333 -0.100000 -1.000000
v -0.833333 -0.100000 -1.000000
v -0.833333 0.100000 -1.000000
v 0.833333 0.100000 -1.000000
v -0.833333 -0.100000 1.000000
v 0.833333 -0.100000 1.000000
v 0.833333 0.100000 1.000000
v -0.833333 0.100000 1.000000
v -1.000000 0.290534 1.000000
v -1.000000 0.290534 -1.000000
v 0.833333 0.290534 -1.000000
v 1.000000 0.290534 -1.000000
v 1.000000 0.290534 1.000000
v -0.833333 0.290534 1.000000
v -0.833333 0.290534 -1.000000
v 0.833333 0.290534 1.000000
vn -1.0000 -0.0000 -0.0000
vn -0.0000 -0.0000 -1.0000
vn 1.0000 -0.0000 -0.0000
vn -0.0000 -0.0000 1.0000
vn -0.0000 -1.0000 -0.0000
vn -0.0000 1.0000 -0.0000
vt 0.250043 0.293522
vt 0.353282 0.293522
vt 0.353282 0.396761
vt 0.250043 0.396761
vt 0.250043 0.465587
vt 0.353282 0.465587
vt 0.353282 0.500000
vt 0.250043 0.500000
vt 0.353282 0.603239
vt 0.250043 0.603239
vt 0.250043 0.672065
vt 0.353282 0.672065
vt 0.353282 0.706478
vt 0.250043 0.706478
vt 0.215630 0.500000
vt 0.215630 0.603239
vt 0.008680 0.978416
vt 0.008680 0.009643
vt 0.046269 0.009643
vt 0.046269 0.978416
vt 0.353282 0.431174
vt 0.935819 0.994138
vt 0.066063 1.001667
vt 0.066063 0.020919
vt 0.935819 0.013391
vt 0.146804 0.500000
vt 0.181217 0.500000
vt 0.181217 0.603239
vt 0.146804 0.603239
vt 0.353282 0.637652
vt 0.250043 0.637652
vt 0.250043 0.431174
vt 0.045360 0.997902
vt 0.004496 0.997902
vt 0.004496 0.017155
vt 0.045360 0.017155
vt 0.991740 0.994138
vt 0.950876 0.994138
vt 0.950876 0.013391
vt 0.991740 0.013391
vt 0.046558 0.978416
vt 0.046558 0.009643
vt 0.009877 0.010278
vt 0.009877 0.979051
vt 0.046697 0.015164
vt 0.046697 0.983937
vt 0.009108 0.978416
vt 0.009108 0.009643
vt 0.008390 0.009643
vt 0.008390 0.978416
vt 0.046986 0.983937
vt 0.046986 0.015164
s 0
usemtl Material.001
f 1/1/1 2/2/1 4/3/1 3/4/1
f 9/5/2 12/6/2 8/7/2 7/8/2
f 7/8/3 8/7/3 6/9/3 5/10/3
f 13/11/4 16/12/4 2/13/4 1/14/4
f 9/15/5 7/8/5 5/10/5 14/16/5
f 16/17/3 11/18/3 23/19/3 22/20/3
f 11/21/2 4/3/2 18/3/2 23/21/2
f 12/22/6 11/23/6 16/24/6 15/25/6
f 3/26/5 10/27/5 13/28/5 1/29/5
f 10/27/5 9/15/5 14/16/5 13/28/5
f 5/10/4 6/9/4 15/30/4 14/31/4
f 14/31/4 15/30/4 16/12/4 13/11/4
f 3/4/2 4/3/2 11/21/2 10/32/2
f 10/32/2 11/21/2 12/6/2 9/5/2
f 23/33/6 18/34/6 17/35/6 22/36/6
f 20/37/6 19/38/6 24/39/6 21/40/6
f 6/41/3 8/42/3 20/43/3 21/44/3
f 4/45/1 2/46/1 17/47/1 18/48/1
f 2/13/4 16/12/4 22/12/4 17/13/4
f 12/49/1 15/50/1 24/51/1 19/52/1
f 15/30/4 6/9/4 21/9/4 24/30/4
f 8/7/2 12/6/2 19/6/2 20/7/2
