# 3ds Max Wavefront OBJ Exporter v0.99 - (c)2007 guruware
# File Created: 14.12.2024 17:21:00

mtllib booster.mtl

#
# object Box001
#

v  0.0083 0.0102 0.6612
v  -0.0541 0.1670 0.6612
v  0.0084 0.1670 0.6612
v  0.0084 0.0102 0.6612
v  0.0067 0.3238 0.6612
v  0.0084 0.3238 0.6612
v  0.0084 0.1601 4.8864
v  0.0080 0.1739 4.8864
v  0.0021 0.1670 4.8864
v  0.0084 0.1739 4.8864
v  0.0085 0.0102 0.6612
v  0.0710 0.1670 0.6612
v  0.0101 0.3238 0.6612
v  0.0147 0.1670 4.8864
v  0.0088 0.1739 4.8864
# 15 vertices

vn 0.0000 0.0000 -1.0000
vn 0.0000 -0.9888 0.1492
vn -0.3420 0.9368 0.0743
vn -0.5589 0.8195 0.1263
vn -0.9753 -0.0053 0.2210
vn -0.9778 -0.0104 0.2091
vn -0.5494 -0.8262 0.1249
vn -0.3266 -0.9425 0.0711
vn -0.0000 0.9888 0.1492
vn 0.0000 0.9888 0.1492
vn -0.0000 -0.0000 1.0000
vn -0.0000 0.0000 1.0000
vn 0.0000 0.0000 1.0000
vn 0.0000 -0.0000 1.0000
vn 0.9497 -0.0420 0.3104
vn 0.9765 -0.0071 0.2153
vn 0.5556 0.8227 0.1201
vn 0.2925 0.9453 0.1440
vn 0.3266 -0.9425 0.0711
vn 0.5494 -0.8262 0.1249
# 20 vertex normals

vt 0.6624 0.4912 0.0000
vt 0.7790 0.6158 0.0000
vt 0.5913 0.6158 0.0000
vt 0.5913 0.4912 0.0000
vt 0.6624 0.7405 0.0000
vt 0.5913 0.7405 0.0000
vt 0.8666 0.0000 0.0000
vt 0.9202 0.7949 0.0000
vt 0.8662 0.7986 0.0000
vt 0.7957 0.0048 0.0000
vt 0.4845 0.8008 0.0000
vt 0.3419 0.0167 0.0000
vt 0.5118 0.0000 0.0000
vt 0.5063 0.7991 0.0000
vt 0.6814 0.0189 0.0000
vt 0.5281 0.8010 0.0000
vt 0.7919 0.0000 0.0000
vt 0.8539 0.7945 0.0000
vt 0.8000 0.7999 0.0000
vt 0.7211 0.0070 0.0000
vt 0.3574 0.7693 0.0000
vt 0.2874 0.7816 0.0000
vt 0.2658 0.6589 0.0000
vt 0.4507 0.6264 0.0000
vt 0.3142 0.5239 0.0000
vt 0.2442 0.5362 0.0000
vt 0.7408 0.3234 0.0000
vt 0.7512 0.3426 0.0000
vt 0.7395 0.3611 0.0000
vt 0.6853 0.3591 0.0000
vt 0.6312 0.3571 0.0000
vt 0.6208 0.3379 0.0000
vt 0.6326 0.3194 0.0000
vt 0.6867 0.3214 0.0000
vt 0.1635 1.0000 0.0000
vt 0.1517 0.9299 0.0000
vt 0.9401 0.8141 0.0000
vt 0.9492 0.8676 0.0000
vt 0.1698 0.7991 0.0000
vt 0.1698 0.0000 0.0000
vt 0.3395 0.0179 0.0000
vt 0.1916 0.8010 0.0000
vt 0.1480 0.8008 0.0000
vt 0.0000 0.0178 0.0000
vt 0.7895 0.7556 0.0000
vt 0.8006 0.8258 0.0000
vt 0.0136 0.9500 0.0000
vt 0.0051 0.8965 0.0000
# 48 texture coords

o Box001
g Box001
usemtl wire_255255255
s 2
f 1/1/1 2/2/1 3/3/1 
f 3/3/1 4/4/1 1/1/1 
f 5/5/1 6/6/1 3/3/1 
f 3/3/1 2/2/1 5/5/1 
s 8
f 4/7/2 7/8/2 7/9/2 
f 7/9/2 1/10/2 4/7/2 
s 64
f 8/11/3 5/12/4 2/13/5 
f 2/13/5 9/14/6 8/11/3 
f 2/13/5 1/15/7 7/16/8 
f 7/16/8 9/14/6 2/13/5 
s 32
f 5/17/9 8/18/9 10/19/9 
f 10/19/9 6/20/10 5/17/9 
s 2
f 11/21/1 4/22/1 3/23/1 
f 3/23/1 12/24/1 11/21/1 
f 13/25/1 12/24/1 3/23/1 
f 3/23/1 6/26/1 13/25/1 
s 4
f 7/27/11 14/28/12 15/29/13 
f 7/27/11 15/29/13 10/30/11 
f 8/31/12 9/32/13 7/33/14 
f 10/30/11 8/31/12 7/33/14 
f 10/30/11 7/33/14 7/34/14 
f 7/27/11 10/30/11 7/34/14 
s 8
f 4/35/2 11/36/2 7/37/2 
f 7/37/2 7/38/2 4/35/2 
s 64
f 14/39/15 12/40/16 13/41/17 
f 13/41/17 15/42/18 14/39/15 
f 12/40/16 14/39/15 7/43/19 
f 7/43/19 11/44/20 12/40/16 
s 32
f 13/45/10 6/46/10 10/47/9 
f 10/47/9 15/48/10 13/45/10 
# 30 faces

#
# object Box002
#

v  0.2626 -0.4312 0.2013
v  0.5500 -0.4312 0.2013
v  0.5500 -0.4313 0.2013
v  0.2626 -0.4313 0.2013
v  0.8375 -0.4297 0.2013
v  0.8375 -0.4313 0.2013
v  0.5374 -0.4313 6.7084
v  0.5626 -0.4309 6.7084
v  0.5500 -0.4250 6.7084
v  0.5626 -0.4313 6.7084
v  0.2626 -0.4315 0.2013
v  0.5500 -0.4315 0.2013
v  0.8375 -0.4330 0.2013
v  0.5500 -0.4376 6.7084
v  0.5626 -0.4317 6.7084
# 15 vertices

vn 0.0000 -0.0000 -1.0000
vn -0.9888 0.0000 0.1492
vn 0.9234 0.3837 -0.0067
vn -0.0364 0.9993 -0.0007
vn -0.0192 0.9998 -0.0001
vn -0.0090 0.9997 -0.0233
vn -0.0011 1.0000 0.0006
vn -0.9306 0.3661 -0.0062
vn 0.9888 -0.0000 0.1492
vn 0.9888 0.0000 0.1492
vn -0.0000 0.0000 1.0000
vn 0.0000 0.0000 1.0000
vn 0.0000 -0.0000 1.0000
vn -0.0000 -0.0000 1.0000
vn -0.0641 -0.9789 0.1938
vn -0.0264 -0.9996 -0.0114
vn -0.0209 -0.9996 -0.0208
vn 0.9453 -0.2925 0.1440
vn -0.9305 -0.3661 -0.0062
vn -0.0011 -1.0000 0.0006
# 20 vertex normals

vt 0.6624 0.4912 0.0000
vt 0.7790 0.6158 0.0000
vt 0.5913 0.6158 0.0000
vt 0.5913 0.4912 0.0000
vt 0.6624 0.7405 0.0000
vt 0.5913 0.7405 0.0000
vt 0.8666 0.0000 0.0000
vt 0.9202 0.7949 0.0000
vt 0.8662 0.7986 0.0000
vt 0.7957 0.0048 0.0000
vt 0.4845 0.8008 0.0000
vt 0.3419 0.0167 0.0000
vt 0.5118 0.0000 0.0000
vt 0.5063 0.7991 0.0000
vt 0.6814 0.0189 0.0000
vt 0.5281 0.8010 0.0000
vt 0.7919 0.0000 0.0000
vt 0.8539 0.7945 0.0000
vt 0.8000 0.7999 0.0000
vt 0.7211 0.0070 0.0000
vt 0.3574 0.7693 0.0000
vt 0.2874 0.7816 0.0000
vt 0.2658 0.6589 0.0000
vt 0.4507 0.6264 0.0000
vt 0.3142 0.5239 0.0000
vt 0.2442 0.5362 0.0000
vt 0.7408 0.3234 0.0000
vt 0.7512 0.3426 0.0000
vt 0.7395 0.3611 0.0000
vt 0.6853 0.3591 0.0000
vt 0.6312 0.3571 0.0000
vt 0.6208 0.3379 0.0000
vt 0.6326 0.3194 0.0000
vt 0.6867 0.3214 0.0000
vt 0.1635 1.0000 0.0000
vt 0.1517 0.9299 0.0000
vt 0.9401 0.8141 0.0000
vt 0.9492 0.8676 0.0000
vt 0.1698 0.7991 0.0000
vt 0.1698 0.0000 0.0000
vt 0.3395 0.0179 0.0000
vt 0.1916 0.8010 0.0000
vt 0.1480 0.8008 0.0000
vt 0.0000 0.0178 0.0000
vt 0.7895 0.7556 0.0000
vt 0.8006 0.8258 0.0000
vt 0.0136 0.9500 0.0000
vt 0.0051 0.8965 0.0000
# 48 texture coords

o Box002
g Box002
usemtl wire_255255255
s 2
f 16/49/21 17/50/21 18/51/21 
f 18/51/21 19/52/21 16/49/21 
f 20/53/21 21/54/21 18/51/21 
f 18/51/21 17/50/21 20/53/21 
s 8
f 19/55/22 22/56/22 22/57/22 
f 22/57/22 16/58/22 19/55/22 
s 64
f 23/59/23 20/60/24 17/61/25 
f 17/61/25 24/62/26 23/59/23 
f 17/61/25 16/63/27 22/64/28 
f 22/64/28 24/62/26 17/61/25 
s 32
f 20/65/29 23/66/30 25/67/29 
f 25/67/29 21/68/29 20/65/29 
s 2
f 26/69/21 19/70/21 18/71/21 
f 18/71/21 27/72/21 26/69/21 
f 28/73/21 27/72/21 18/71/21 
f 18/71/21 21/74/21 28/73/21 
s 4
f 22/75/31 29/76/32 30/77/33 
f 22/75/31 30/77/33 25/78/31 
f 23/79/32 24/80/33 22/81/34 
f 25/78/31 23/79/32 22/81/34 
f 25/78/31 22/81/34 22/82/31 
f 22/75/31 25/78/31 22/82/31 
s 8
f 19/83/22 26/84/22 22/85/22 
f 22/85/22 22/86/22 19/83/22 
s 64
f 29/87/35 27/88/36 28/89/37 
f 28/89/37 30/90/38 29/87/35 
f 27/88/36 29/87/35 22/91/39 
f 22/91/39 26/92/40 27/88/36 
s 32
f 28/93/29 21/94/29 25/95/29 
f 25/95/29 30/96/29 28/93/29 
# 30 faces

#
# object Box003
#

v  -0.8375 -0.4312 0.2013
v  -0.5500 -0.4312 0.2013
v  -0.5500 -0.4313 0.2013
v  -0.8375 -0.4313 0.2013
v  -0.2626 -0.4297 0.2013
v  -0.2626 -0.4313 0.2013
v  -0.5626 -0.4313 6.7084
v  -0.5374 -0.4309 6.7084
v  -0.5500 -0.4250 6.7084
v  -0.5374 -0.4313 6.7084
v  -0.8375 -0.4315 0.2013
v  -0.5500 -0.4315 0.2013
v  -0.2626 -0.4330 0.2013
v  -0.5500 -0.4376 6.7084
v  -0.5374 -0.4317 6.7084
# 15 vertices

vn 0.0000 -0.0000 -1.0000
vn -0.9888 0.0000 0.1492
vn 0.9234 0.3837 -0.0067
vn -0.0364 0.9993 -0.0007
vn -0.0192 0.9998 -0.0001
vn -0.0090 0.9997 -0.0233
vn -0.0011 1.0000 0.0006
vn -0.9306 0.3661 -0.0062
vn 0.9888 -0.0000 0.1492
vn 0.9888 0.0000 0.1492
vn -0.0000 0.0000 1.0000
vn 0.0000 0.0000 1.0000
vn 0.0000 -0.0000 1.0000
vn -0.0000 -0.0000 1.0000
vn -0.0641 -0.9789 0.1938
vn -0.0264 -0.9996 -0.0114
vn -0.0209 -0.9996 -0.0208
vn 0.9453 -0.2925 0.1440
vn -0.9305 -0.3661 -0.0062
vn -0.0011 -1.0000 0.0006
# 20 vertex normals

vt 0.6624 0.4912 0.0000
vt 0.7790 0.6158 0.0000
vt 0.5913 0.6158 0.0000
vt 0.5913 0.4912 0.0000
vt 0.6624 0.7405 0.0000
vt 0.5913 0.7405 0.0000
vt 0.8666 0.0000 0.0000
vt 0.9202 0.7949 0.0000
vt 0.8662 0.7986 0.0000
vt 0.7957 0.0048 0.0000
vt 0.4845 0.8008 0.0000
vt 0.3419 0.0167 0.0000
vt 0.5118 0.0000 0.0000
vt 0.5063 0.7991 0.0000
vt 0.6814 0.0189 0.0000
vt 0.5281 0.8010 0.0000
vt 0.7919 0.0000 0.0000
vt 0.8539 0.7945 0.0000
vt 0.8000 0.7999 0.0000
vt 0.7211 0.0070 0.0000
vt 0.3574 0.7693 0.0000
vt 0.2874 0.7816 0.0000
vt 0.2658 0.6589 0.0000
vt 0.4507 0.6264 0.0000
vt 0.3142 0.5239 0.0000
vt 0.2442 0.5362 0.0000
vt 0.7408 0.3234 0.0000
vt 0.7512 0.3426 0.0000
vt 0.7395 0.3611 0.0000
vt 0.6853 0.3591 0.0000
vt 0.6312 0.3571 0.0000
vt 0.6208 0.3379 0.0000
vt 0.6326 0.3194 0.0000
vt 0.6867 0.3214 0.0000
vt 0.1635 1.0000 0.0000
vt 0.1517 0.9299 0.0000
vt 0.9401 0.8141 0.0000
vt 0.9492 0.8676 0.0000
vt 0.1698 0.7991 0.0000
vt 0.1698 0.0000 0.0000
vt 0.3395 0.0179 0.0000
vt 0.1916 0.8010 0.0000
vt 0.1480 0.8008 0.0000
vt 0.0000 0.0178 0.0000
vt 0.7895 0.7556 0.0000
vt 0.8006 0.8258 0.0000
vt 0.0136 0.9500 0.0000
vt 0.0051 0.8965 0.0000
# 48 texture coords

o Box003
g Box003
usemtl wire_255255255
s 2
f 31/97/41 32/98/41 33/99/41 
f 33/99/41 34/100/41 31/97/41 
f 35/101/41 36/102/41 33/99/41 
f 33/99/41 32/98/41 35/101/41 
s 8
f 34/103/42 37/104/42 37/105/42 
f 37/105/42 31/106/42 34/103/42 
s 64
f 38/107/43 35/108/44 32/109/45 
f 32/109/45 39/110/46 38/107/43 
f 32/109/45 31/111/47 37/112/48 
f 37/112/48 39/110/46 32/109/45 
s 32
f 35/113/49 38/114/50 40/115/49 
f 40/115/49 36/116/49 35/113/49 
s 2
f 41/117/41 34/118/41 33/119/41 
f 33/119/41 42/120/41 41/117/41 
f 43/121/41 42/120/41 33/119/41 
f 33/119/41 36/122/41 43/121/41 
s 4
f 37/123/51 44/124/52 45/125/53 
f 37/123/51 45/125/53 40/126/51 
f 38/127/52 39/128/53 37/129/54 
f 40/126/51 38/127/52 37/129/54 
f 40/126/51 37/129/54 37/130/51 
f 37/123/51 40/126/51 37/130/51 
s 8
f 34/131/42 41/132/42 37/133/42 
f 37/133/42 37/134/42 34/131/42 
s 64
f 44/135/55 42/136/56 43/137/57 
f 43/137/57 45/138/58 44/135/55 
f 42/136/56 44/135/55 37/139/59 
f 37/139/59 41/140/60 42/136/56 
s 32
f 43/141/49 36/142/49 40/143/49 
f 40/143/49 45/144/49 43/141/49 
# 30 faces

